# xmcd
# Track frame offsets:
# 150
# 12084
# 26773
# 39480
# 49077
# 61369
# 74954
# 86421
# 94555
# 102445
# 114317
# 127864
# 137829
#
# Disc length: 2025 seconds
# Revision: 0
# Processed by: cddbd v1.4PL0 Copyright (c) Steve Scherf et al.
# Submitted via: VisiTrax 2.9.5.180 - For more info visit www.synapsa.com
#
DISCID=ac07e70d
DTITLE=Johnny Earle - `Give Me The Right
DYEAR=1993
DGENRE=
TTITLE0=Give Me The Right
TTITLE1=Hello Mary Lou - It´s Late
TTITLE2=Don´t
TTITLE3=Until Then
TTITLE4=Love Me
TTITLE5=Run Boy Run
TTITLE6=Too Much
TTITLE7=Finders Keepers Losers Weepers
TTITLE8=Love Come Back
TTITLE9=I Want You,I  Need You, I Love You
TTITLE10=Crying
TTITLE11=I Can Count On You
TTITLE12=Just Can´t Help Believing
EXTD=with The Jordanarires
EXTT0=
EXTT1=
EXTT2=
EXTT3=
EXTT4=
EXTT5=
EXTT6=
EXTT7=
EXTT8=
EXTT9=
EXTT10=
EXTT11=
EXTT12=
PLAYORDER=
